External Loads File
version=1
nRows=77
nColumns=13
Range=5.000000e-03-10 seconds
endheader
time 	forceRightX 	forceRightY 	forceRightZ 	pointRightX 	pointRightY 	pointRightZ 	forceLeftX 	forceLeftY 	forceLeftZ 	pointLeftX 	pointLeftY 	pointLeftZ 		
2.505000 -115.406980 -149.242474 -0.000000 0.178933 0.468384 -0.128112 108.850713 518.207460 -0.000000 0.225945 0.153954 -0.365216
2.510000 -117.653737 -150.222841 -0.000000 0.186470 0.471664 -0.128305 113.347315 480.792250 -0.000000 0.218374 0.151293 -0.365035
2.515000 -118.539416 -149.093653 -0.000000 0.194349 0.474533 -0.128455 116.263474 439.721393 -0.000000 0.210765 0.149293 -0.364899
2.520000 -118.049374 -145.922968 -0.000000 0.202246 0.476765 -0.128535 116.913876 395.491361 -0.000000 0.203144 0.147759 -0.364722
2.525000 -116.407918 -140.689203 -0.000000 0.210154 0.478554 -0.128623 115.262516 348.720020 -0.000000 0.195472 0.146681 -0.364611
2.530000 -113.850291 -133.481937 -0.000000 0.218040 0.479795 -0.128608 111.249995 300.293731 -0.000000 0.187810 0.146113 -0.364477
2.535000 -110.707152 -124.406757 -0.000000 0.225845 0.480603 -0.128514 105.080777 251.205443 -0.000000 0.180123 0.146216 -0.364310
2.540000 -107.329333 -113.565180 -0.000000 0.233546 0.480790 -0.128432 97.082609 202.487689 -0.000000 0.172421 0.146756 -0.364110
2.545000 -104.025160 -101.002788 -0.000000 0.241179 0.480409 -0.128179 87.655460 155.129689 -0.000000 0.164848 0.147720 -0.363750
2.550000 -101.149699 -86.533422 -0.000000 0.248766 0.479587 -0.127913 77.432136 109.887499 -0.000000 0.157238 0.149450 -0.363428
2.555000 -98.814906 -70.006307 -0.000000 0.256022 0.478063 -0.127651 66.820498 67.483368 -0.000000 0.149625 0.151630 -0.363028
2.560000 -97.144567 -51.029389 -0.000000 0.263083 0.476365 -0.127168 56.339712 28.385752 -0.000000 0.141896 0.154305 -0.362588
2.565000 -96.140532 -29.073355 -0.000000 0.269982 0.473225 -0.126995 46.320283 -7.049166 -0.000000 0.134286 0.157403 -0.362155
2.570000 -95.605440 -3.828060 -0.000000 0.276404 0.469884 -0.126640 36.933231 -38.371458 -0.000000 0.126755 0.161063 -0.361676
2.575000 -95.394667 25.066192 -0.000000 0.282382 0.465986 -0.126274 28.348662 -65.207968 -0.000000 0.119491 0.164942 -0.361156
2.580000 -95.312678 57.897855 -0.000000 0.287779 0.461311 -0.125820 20.631276 -87.218769 -0.000000 0.112392 0.169269 -0.361118
2.585000 -95.223938 94.679655 -0.000000 0.292928 0.456504 -0.125337 13.988855 -104.117283 -0.000000 0.105656 0.173937 -0.360788
2.590000 -95.230581 135.336140 -0.000000 0.297343 0.451662 -0.124969 8.846559 -115.782894 -0.000000 0.099055 0.178911 -0.360270
2.595000 -95.357031 180.047773 -0.000000 0.301209 0.446587 -0.124660 5.484918 -122.292608 -0.000000 0.092553 0.184522 -0.359799
2.600000 -96.035574 228.814831 -0.000000 0.304462 0.441239 -0.124164 4.388613 -123.874083 -0.000000 0.086140 0.190567 -0.359436
2.605000 -97.573757 281.580255 -0.000000 0.307416 0.435469 -0.123750 5.756651 -120.950314 -0.000000 0.079777 0.197042 -0.359104
2.610000 -100.310130 337.772637 -0.000000 0.310171 0.429119 -0.123298 9.699221 -114.147939 -0.000000 0.073639 0.204046 -0.358795
2.615000 -104.219915 396.222690 -0.000000 0.313017 0.422202 -0.122853 16.132998 -104.302827 -0.000000 0.067628 0.211392 -0.358597
2.620000 -109.100482 455.083094 -0.000000 0.315790 0.414838 -0.122502 24.885967 -92.390811 -0.000000 0.061883 0.219280 -0.358344
2.625000 -113.984962 512.143859 -0.000000 0.318485 0.406841 -0.122024 35.530982 -79.441631 -0.000000 0.056410 0.227590 -0.358114
2.630000 -117.803978 564.942177 -0.000000 0.321191 0.398303 -0.121805 47.533020 -66.373385 -0.000000 0.051324 0.236247 -0.357934
2.635000 -120.368554 610.956866 -0.000000 0.323718 0.389667 -0.121589 60.340007 -53.782634 -0.000000 0.046634 0.245173 -0.357793
2.640000 -120.919547 648.337466 -0.000000 0.326066 0.380552 -0.121166 73.277452 -42.053167 -0.000000 0.042739 0.254178 -0.357722
2.645000 -119.593045 675.912900 -0.000000 0.328167 0.371338 -0.121031 85.814687 -31.338105 -0.000000 0.039332 0.263255 -0.357672
2.650000 -116.808013 693.416169 -0.000000 0.330148 0.362148 -0.121057 97.532689 -21.728665 -0.000000 0.036588 0.272395 -0.357723
2.655000 -112.855653 701.447937 -0.000000 0.331761 0.352937 -0.121504 108.112436 -13.376188 -0.000000 0.034328 0.281588 -0.357842
2.660000 -108.608944 701.164497 -0.000000 0.333367 0.343955 -0.121623 117.311470 -6.362762 -0.000000 0.032695 0.290826 -0.357964
2.665000 -103.403708 694.407054 -0.000000 0.334701 0.334690 -0.121676 124.899100 -0.970769 -0.000000 0.031712 0.300100 -0.358092
2.670000 -97.851670 683.072705 -0.000000 0.335606 0.325302 -0.121693 130.697938 2.816352 -0.000000 0.031375 0.309402 -0.358201
2.675000 -91.952190 669.223603 -0.000000 0.336051 0.315773 -0.121786 134.553607 5.023316 -0.000000 0.031880 0.318723 -0.358314
2.680000 -85.656950 654.776025 -0.000000 0.336147 0.306155 -0.121893 136.327242 5.757058 -0.000000 0.033024 0.328053 -0.358361
2.685000 -79.223304 641.244771 -0.000000 0.335730 0.296631 -0.121965 135.905722 5.232170 -0.000000 0.034890 0.337278 -0.358517
2.690000 -72.106819 629.777352 -0.000000 0.334741 0.287202 -0.121720 133.247730 3.444133 -0.000000 0.037388 0.346415 -0.358587
2.695000 -63.470063 621.091678 -0.000000 0.332717 0.277788 -0.121986 128.389467 0.191110 -0.000000 0.040628 0.355402 -0.359399
2.700000 -52.909234 615.444404 -0.000000 0.330335 0.268160 -0.122208 121.417572 -4.776351 -0.000000 0.044545 0.364179 -0.359625
2.705000 -41.117517 612.651156 -0.000000 0.327456 0.258822 -0.122172 112.444468 -11.596419 -0.000000 0.049155 0.372685 -0.360070
2.710000 -27.674954 612.352417 -0.000000 0.324070 0.249599 -0.122174 101.550138 -20.692951 -0.000000 0.054450 0.380858 -0.360295
2.715000 -11.899985 613.960592 -0.000000 0.320152 0.240338 -0.121834 88.693605 -32.509482 -0.000000 0.060265 0.389009 -0.360320
2.720000 4.534094 616.749253 -0.000000 0.315653 0.231504 -0.121785 73.807866 -47.063226 -0.000000 0.066852 0.396616 -0.360522
2.725000 21.805955 620.131594 -0.000000 0.310782 0.222890 -0.121573 56.635806 -64.508868 -0.000000 0.073808 0.404159 -0.360539
2.730000 38.554660 623.665596 -0.000000 0.305733 0.214758 -0.121527 37.018110 -84.577177 -0.000000 0.081368 0.411311 -0.360754
2.735000 56.721852 626.823859 -0.000000 0.299383 0.206708 -0.121756 14.463778 -106.894085 -0.000000 0.089259 0.418271 -0.361151
2.740000 74.236974 629.366555 -0.000000 0.293298 0.198757 -0.121621 -10.743255 -130.521476 -0.000000 0.097512 0.425332 -0.361417
2.745000 89.112450 631.247895 -0.000000 0.287347 0.191220 -0.121278 -37.693460 -154.592534 -0.000000 0.106026 0.431438 -0.361630
2.750000 103.631321 631.836381 -0.000000 0.280509 0.184108 -0.121405 -65.988018 -177.984156 -0.000000 0.114326 0.437545 -0.361457
2.755000 117.944840 630.607146 -0.000000 0.273406 0.177458 -0.121405 -94.519948 -199.399049 -0.000000 0.123124 0.443467 -0.362551
2.760000 129.880926 627.443411 -0.000000 0.266382 0.171381 -0.121393 -121.130775 -217.999144 -0.000000 0.131625 0.449021 -0.362296
2.765000 141.211035 621.449751 -0.000000 0.259133 0.165701 -0.121259 -144.824473 -232.570750 -0.000000 0.140138 0.454516 -0.362438
2.770000 151.004201 612.222782 -0.000000 0.251696 0.160666 -0.121026 -163.918480 -242.618239 -0.000000 0.148301 0.459905 -0.362232
2.775000 159.940415 599.048472 -0.000000 0.244049 0.155929 -0.120624 -177.744863 -247.606527 -0.000000 0.156629 0.464192 -0.362399
2.780000 167.262151 581.667355 -0.000000 0.236497 0.151772 -0.120494 -185.628659 -247.714904 -0.000000 0.164707 0.468860 -0.362355
2.785000 173.225907 559.667734 -0.000000 0.228829 0.148250 -0.120427 -187.878796 -243.181449 -0.000000 0.172771 0.473146 -0.362335
2.790000 177.822154 532.799483 -0.000000 0.221037 0.145117 -0.120428 -185.213700 -234.622354 -0.000000 0.180853 0.476996 -0.362262
2.795000 180.444401 501.147961 -0.000000 0.213361 0.142421 -0.120496 -178.483319 -223.110942 -0.000000 0.188901 0.480270 -0.362483
2.800000 181.502382 464.665600 -0.000000 0.205651 0.140411 -0.120529 -169.230029 -209.507910 -0.000000 0.197091 0.483533 -0.362316
2.805000 180.667774 423.835507 -0.000000 0.197982 0.138793 -0.120560 -158.748856 -194.913222 -0.000000 0.205356 0.485526 -0.362560
2.810000 177.642835 379.447397 -0.000000 0.190412 0.137804 -0.120561 -148.251230 -180.226485 -0.000000 0.213608 0.487484 -0.362861
2.815000 172.392835 332.465233 -0.000000 0.182995 0.136392 -0.120615 -138.803100 -165.950728 -0.000000 0.221988 0.488336 -0.363284
2.820000 165.062180 284.019890 -0.000000 0.175798 0.137603 -0.120514 -131.171589 -152.246604 -0.000000 0.230374 0.488545 -0.363532
2.825000 155.586006 235.624558 -0.000000 0.168782 0.137985 -0.120414 -125.571981 -139.245871 -0.000000 0.238751 0.487331 -0.363765
2.830000 144.326932 188.778222 -0.000000 0.161917 0.138733 -0.120415 -122.015020 -126.902730 -0.000000 0.247133 0.486006 -0.363886
2.835000 131.744981 144.971710 -0.000000 0.155016 0.140371 -0.120808 -120.237678 -115.158396 -0.000000 0.255375 0.485913 -0.364160
2.840000 118.686345 105.180631 -0.000000 0.148469 0.142450 -0.120807 -120.092314 -103.617249 -0.000000 0.263294 0.483322 -0.364256
2.845000 105.624151 70.358579 -0.000000 0.142016 0.144877 -0.120828 -121.116298 -92.077361 -0.000000 0.270815 0.480804 -0.364346
2.850000 93.239370 40.790952 -0.000000 0.135734 0.147606 -0.120761 -123.170710 -79.938925 -0.000000 0.278038 0.477641 -0.364308
2.855000 81.964952 16.523337 -0.000000 0.129517 0.150966 -0.120805 -126.157775 -66.542221 -0.000000 0.284603 0.473890 -0.364587
2.860000 72.061588 -2.681696 -0.000000 0.123523 0.154566 -0.120722 -130.129376 -51.000597 -0.000000 0.290771 0.469446 -0.364686
2.865000 63.605966 -17.213001 -0.000000 0.117680 0.158696 -0.120672 -135.224110 -32.272740 -0.000000 0.296447 0.464567 -0.364774
2.870000 56.547931 -27.558609 -0.000000 0.112052 0.163340 -0.120648 -141.626312 -9.230869 -0.000000 0.301613 0.458856 -0.364975
2.875000 50.840170 -34.148576 -0.000000 0.106666 0.168608 -0.120644 -149.498266 18.886345 -0.000000 0.305910 0.452818 -0.365173
2.880000 46.349839 -37.611853 -0.000000 0.101479 0.174389 -0.120730 -158.960973 52.996153 -0.000000 0.309765 0.446142 -0.365310
2.885000 43.017560 -38.503294 -0.000000 0.096517 0.180840 -0.120700 -170.008197 93.345962 -0.000000 0.313223 0.439254 -0.365524
